<?xml version="1.0" encoding="UTF-8"?>
<svg version="1.1" xmlns="http://www.w3.org/2000/svg" width="196" height="196">
<path d="M0 0 C64.68 0 129.36 0 196 0 C196 64.68 196 129.36 196 196 C131.32 196 66.64 196 0 196 C0 131.32 0 66.64 0 0 Z " fill="#FCFCFD" transform="translate(0,0)"/>
<path d="M0 0 C9.07667867 3.93921746 18.20878021 7.59620294 27.5 11 C28.60126221 11.40395996 29.70252441 11.80791992 30.8371582 12.22412109 C31.89765381 12.61164551 32.95814941 12.99916992 34.05078125 13.3984375 C35.583396 13.96062988 35.583396 13.96062988 37.14697266 14.53417969 C39.19489052 15.26889119 41.25235422 15.97745994 43.31787109 16.66113281 C44.29965332 16.99209961 45.28143555 17.32306641 46.29296875 17.6640625 C47.1646167 17.94717285 48.03626465 18.2302832 48.93432617 18.52197266 C51.70067416 19.87622125 52.61198695 20.98099428 54.1875 23.625 C54.58190918 26.52174377 54.58190918 26.52174377 54.60742188 29.92797852 C54.62333374 31.20774063 54.63924561 32.48750275 54.65563965 33.80604553 C54.65690881 35.20533188 54.65708255 36.60461958 54.65625 38.00390625 C54.66336304 39.45483184 54.67106369 40.90575466 54.67932129 42.35667419 C54.69277968 45.40737682 54.69433451 48.4578209 54.68847656 51.50854492 C54.68380215 54.60139279 54.69735913 57.69320581 54.72949219 60.78588867 C55.07307611 94.2025696 49.31483586 120.75656575 25.125 145.78125 C15.16997733 155.65599023 -0.3220565 168.17804228 -14.4375 170.125 C-20.19971335 169.99329227 -25.20455582 166.8706602 -29.8125 163.625 C-32.47083786 160.74513398 -32.82116067 160.11865843 -32.75 156.0625 C-31.8125 152.625 -31.8125 152.625 -30.25 150.625 C-26.67706721 149.15918142 -23.49824063 149.61842196 -19.8125 150.625 C-18.8225 151.285 -17.8325 151.945 -16.8125 152.625 C-6.94459421 152.625 2.06546971 143.58682858 9.1875 137.625 C10.17492187 136.83867187 11.16234375 136.05234375 12.1796875 135.2421875 C19.67791956 128.71775181 25.12031608 120.37982002 29.5625 111.5625 C29.87171387 110.95108154 30.18092773 110.33966309 30.49951172 109.7097168 C35.65503279 98.98561687 37.78518555 89.22549883 37.796875 77.328125 C37.81341125 76.01334167 37.82994751 74.69855835 37.84698486 73.34393311 C37.89019014 69.89171366 37.91055149 66.4397459 37.92572021 62.98730469 C37.94546294 59.44711706 37.98741184 55.90719477 38.02734375 52.3671875 C38.10213621 45.45322619 38.15273366 38.5392756 38.1875 31.625 C36.93050293 31.3141748 35.67350586 31.00334961 34.37841797 30.68310547 C30.97049423 29.84040775 27.64283763 28.86626275 24.3125 27.75 C23.38695312 27.44320312 22.46140625 27.13640625 21.5078125 26.8203125 C15.17204784 24.53943722 8.96504749 22.00162226 2.828125 19.23046875 C1.93996094 18.83279297 1.05179687 18.43511719 0.13671875 18.02539062 C-1.68309225 17.20766079 -3.49814968 16.37927956 -5.30859375 15.54101562 C-12.48704632 12.36048956 -16.15665996 12.62366011 -23.46484375 15.296875 C-25.22837902 15.98494559 -26.99002392 16.67787591 -28.75 17.375 C-37.36583011 20.72647611 -46.01382364 23.79096941 -54.8125 26.625 C-58.930783 27.91863329 -58.930783 27.91863329 -62.8125 29.75 C-65.66819713 30.99936749 -67.73103322 31.01018335 -70.8125 30.625 C-73.1875 29.0625 -73.1875 29.0625 -74.8125 26.625 C-75.53930672 22.26415966 -75.25636563 20.31241814 -72.84765625 16.58203125 C-69.47520515 12.75135695 -65.50450962 11.88758384 -60.6875 10.6875 C-58.8918308 10.19517636 -57.09758439 9.69763828 -55.3046875 9.1953125 C-54.39299805 8.94168945 -53.48130859 8.68806641 -52.54199219 8.42675781 C-48.22846476 7.15970736 -44.02264163 5.63508044 -39.8125 4.0625 C-39.02367432 3.76988281 -38.23484863 3.47726563 -37.42211914 3.17578125 C-32.03490638 1.15011204 -26.75756511 -1.07012102 -21.55078125 -3.52734375 C-13.35502735 -6.06440309 -7.46692796 -3.36249992 0 0 Z " fill="#1261BD" transform="translate(130.8125,10.375)"/>
<path d="M0 0 C4.83890739 1.34563786 7.9516572 5.58883167 11.23608398 9.18432617 C12.75447223 10.79210758 14.27528437 12.39760353 15.79858398 14.00073242 C16.54108398 14.78786621 17.28358398 15.575 18.04858398 16.38598633 C20.66465434 19.05986717 23.4259449 21.4967832 26.26733398 23.92626953 C29.69784958 26.88075003 32.97762763 29.97997462 36.23608398 33.12182617 C36.91541992 33.74702148 37.59475586 34.3722168 38.29467773 35.01635742 C41.49750374 38.12896298 43.07553382 39.80511449 43.95483398 44.27807617 C43.07462385 48.37296681 41.80609503 49.81073172 38.73608398 52.62182617 C37.82084961 53.47518555 36.90561523 54.32854492 35.96264648 55.20776367 C30.01949412 60.46975244 30.01949412 60.46975244 27.16577148 62.91088867 C25.10299877 64.7398248 23.17017679 66.65763076 21.23608398 68.62182617 C18.02992461 71.87181976 14.71935817 74.92455906 11.23999023 77.87963867 C9.85621154 79.08268994 8.51125431 80.33135234 7.20092773 81.61401367 C3.94935147 84.73402326 2.02621599 86.44772929 -2.45141602 87.43432617 C-6.99287843 86.32038256 -8.35209405 84.56844393 -10.76391602 80.62182617 C-11.17407227 77.71948242 -11.17407227 77.71948242 -10.76391602 74.62182617 C-8.85766602 72.09448242 -8.85766602 72.09448242 -6.26391602 69.68432617 C-5.34223633 68.81549805 -4.42055664 67.94666992 -3.47094727 67.05151367 C-0.69628361 64.56112291 2.10751907 62.11262695 4.94311523 59.69213867 C10.25387547 54.89707406 15.21259526 49.71423472 20.23608398 44.62182617 C16.56662481 40.09765934 12.62429345 35.97775413 8.43530273 31.93432617 C7.64822433 31.16971069 7.64822433 31.16971069 6.84524536 30.38964844 C4.65019253 28.2575313 2.45496485 26.12638049 0.23583984 24.01928711 C-1.39924032 22.4631583 -3.01427426 20.88836813 -4.62719727 19.30932617 C-5.12818436 18.84244385 -5.62917145 18.37556152 -6.14533997 17.89453125 C-9.702834 14.36543873 -10.67813206 11.60236325 -10.76391602 6.62182617 C-8.02626163 1.76469742 -5.70854212 -0.19648613 0 0 Z " fill="#28303B" transform="translate(19.763916015625,43.378173828125)"/>
<path d="M0 0 C0.93106567 -0.00945648 1.86213135 -0.01891296 2.82141113 -0.02865601 C4.32617004 -0.01954697 4.32617004 -0.01954697 5.86132812 -0.01025391 C7.4091095 -0.01455917 7.4091095 -0.01455917 8.98815918 -0.01895142 C11.17033436 -0.02099342 13.35252778 -0.01545411 15.53466797 -0.00292969 C18.87964713 0.01312154 22.22341791 -0.00277432 25.56835938 -0.02197266 C27.68685163 -0.01999025 29.80534314 -0.01614663 31.92382812 -0.01025391 C32.92700073 -0.0163266 33.93017334 -0.02239929 34.96374512 -0.02865601 C36.36034363 -0.01447128 36.36034363 -0.01447128 37.78515625 0 C38.60439575 0.00238678 39.42363525 0.00477356 40.2677002 0.00723267 C42.92769735 0.48412048 43.8086416 1.2226149 45.39257812 3.38818359 C45.83007812 6.88818359 45.83007812 6.88818359 45.39257812 10.38818359 C42.60737751 13.10362154 40.60186984 13.7649046 36.76342773 13.77636719 C35.85245834 13.78582367 34.94148895 13.79528015 34.00291443 13.80502319 C33.02677689 13.7989505 32.05063934 13.79287781 31.04492188 13.78662109 C30.03667862 13.78949127 29.02843536 13.79236145 27.98963928 13.7953186 C25.86051877 13.7973583 23.73137949 13.79183509 21.60229492 13.77929688 C18.33860543 13.76322558 15.07615124 13.77915781 11.8125 13.79833984 C9.74413789 13.79635772 7.67577654 13.7925147 5.60742188 13.78662109 C4.6292601 13.79269379 3.65109833 13.79876648 2.64329529 13.80502319 C1.73547806 13.79556671 0.82766083 13.78611023 -0.10766602 13.77636719 C-1.30535362 13.77278702 -1.30535362 13.77278702 -2.52723694 13.76913452 C-5.15541843 13.28782723 -6.03896744 12.52771197 -7.60742188 10.38818359 C-8.2613303 4.28503829 -8.2613303 4.28503829 -6.37194824 1.69369507 C-4.10890352 0.01934726 -2.80015516 0.008158 0 0 Z " fill="#222B37" transform="translate(70.607421875,120.61181640625)"/>
<path d="M0 0 C-2.37553074 1.18776537 -3.71321373 1.0882153 -6.35791016 1.02172852 C-7.25869293 1.00163223 -8.15947571 0.98153595 -9.08755493 0.96083069 C-10.54855118 0.92027809 -10.54855118 0.92027809 -12.0390625 0.87890625 C-13.53305069 0.84348976 -13.53305069 0.84348976 -15.05722046 0.80735779 C-18.24662181 0.73062353 -21.43578628 0.64664116 -24.625 0.5625 C-26.78384247 0.50928909 -28.9426966 0.45654864 -31.1015625 0.40429688 C-36.40118907 0.27499524 -41.70063891 0.1397381 -47 0 C-47 -0.33 -47 -0.66 -47 -1 C-40.62828282 -1.19331179 -34.25626754 -1.37078672 -27.88378906 -1.53710938 C-25.71474153 -1.59560931 -23.54578964 -1.65777217 -21.37695312 -1.72363281 C-18.26450002 -1.81751851 -15.1519438 -1.89834624 -12.0390625 -1.9765625 C-11.065065 -2.00875885 -10.0910675 -2.0409552 -9.08755493 -2.0741272 C-8.18677216 -2.09429901 -7.28598938 -2.11447083 -6.35791016 -2.13525391 C-5.16544174 -2.16856308 -5.16544174 -2.16856308 -3.94888306 -2.20254517 C-2 -2 -2 -2 0 0 Z " fill="#313945" transform="translate(114,123)"/>
<path d="M0 0 C0.99 0.33 1.98 0.66 3 1 C-0.60575001 5.58913637 -4.47384007 9.32167983 -9 13 C-9.66 12.67 -10.32 12.34 -11 12 C-7.37 8.04 -3.74 4.08 0 0 Z " fill="#1153B4" transform="translate(153,135)"/>
<path d="M0 0 C1.32 0.33 2.64 0.66 4 1 C3.01 1 2.02 1 1 1 C-1.08379509 4.84700632 -2.49686624 8.90054429 -4 13 C-4.33 13 -4.66 13 -5 13 C-5.602537 6.97463002 -5.602537 6.97463002 -3.88671875 4.19921875 C-2.65378147 2.74400545 -1.33191067 1.36520843 0 0 Z " fill="#267ADB" transform="translate(61,24)"/>
<path d="M0 0 C0.33 0.99 0.66 1.98 1 3 C-0.86759004 6.51968892 -2.1486353 8.57431765 -5.75 10.375 C-6.4925 10.58125 -7.235 10.7875 -8 11 C-7.59007812 10.45730469 -7.18015625 9.91460937 -6.7578125 9.35546875 C-6.21898437 8.64003906 -5.68015625 7.92460937 -5.125 7.1875 C-4.59132812 6.47980469 -4.05765625 5.77210938 -3.5078125 5.04296875 C-2.29185219 3.39543703 -1.13583859 1.70375789 0 0 Z " fill="#DEE8F4" transform="translate(168,140)"/>
<path d="M0 0 C3.76488042 1.72154788 6.15063897 3.99234114 9 7 C6 7 6 7 4.39453125 5.46875 C3.87246094 4.8190625 3.35039063 4.169375 2.8125 3.5 C2.28269531 2.8503125 1.75289062 2.200625 1.20703125 1.53125 C0.80871094 1.0259375 0.41039062 0.520625 0 0 Z " fill="#222732" transform="translate(34,58)"/>
<path d="M0 0 C0 0.66 0 1.32 0 2 C-3.21451269 3.60725635 -6.43612536 3.05748185 -10 3 C-6.59538535 1.23899242 -3.90650339 0 0 0 Z " fill="#3485DD" transform="translate(75,21)"/>
</svg>
